<svg width="132" height="38" viewBox="0 0 132 38" fill="none" xmlns="http://www.w3.org/2000/svg">
<path d="M8.39716 16.3107L8.15821 17.1299H13.688L13.4491 16.3107C12.7892 14.0806 12.243 12.1804 11.8106 10.6102C11.401 9.04 11.1507 8.02734 11.0597 7.57221L10.9231 6.88951C10.7411 8.14112 9.89909 11.2815 8.39716 16.3107ZM5.4957 26.0733H0L7.68033 3.06642H14.3025L21.9828 26.0733H16.3506L14.951 21.3627H6.89523L5.4957 26.0733Z" fill="#ECFFFC"/>
<path d="M28.3465 17.4713C28.3465 18.8594 28.7106 19.9859 29.4388 20.8506C30.1671 21.6926 31.0546 22.1136 32.1014 22.1136C33.2392 22.1136 34.1608 21.6699 34.8663 20.7824C35.5717 19.8949 35.9245 18.7115 35.9245 17.2324C35.9245 15.7987 35.5376 14.6836 34.7639 13.8871C34.0129 13.0907 33.114 12.6924 32.0672 12.6924C31.0204 12.6924 30.1329 13.1134 29.4047 13.9554C28.6993 14.7974 28.3465 15.9694 28.3465 17.4713ZM40.9081 32.4565L97.8841 32.9999L38.5 37.152L35.9245 32.9999V23.3766C34.7639 25.3109 33.0344 26.2781 30.736 26.2781C28.4148 26.2781 26.5943 25.4361 25.2744 23.7521C23.9545 22.0681 23.2946 19.9404 23.2946 17.3689C23.2946 14.6609 23.9773 12.5218 25.3427 10.9516C26.7081 9.35859 28.5172 8.56212 30.7701 8.56212C33.023 8.56212 34.7411 9.51789 35.9245 11.4294V8.76693H40.9081V32.4565Z" fill="#ECFFFC"/>
<path d="M60.0348 26.0733H55.0511V23.3083C54.1409 25.2426 52.3886 26.2098 49.7944 26.2098C48.0194 26.2098 46.6312 25.7205 45.6299 24.742C44.6514 23.7407 44.1621 22.2729 44.1621 20.3386V8.76693H49.1458V19.2122C49.1458 21.2375 50.0333 22.2502 51.8083 22.2502C53.9702 22.2502 55.0511 20.8051 55.0511 17.915V8.76693H60.0348V26.0733Z" fill="#ECFFFC"/>
<path d="M69.8 22.6598C70.5055 22.6598 71.0516 22.4436 71.4385 22.0112C71.8254 21.5788 72.0188 20.9872 72.0188 20.2362V18.9732H70.4145C69.5725 18.9732 68.9239 19.1553 68.4688 19.5194C68.0136 19.8835 67.7861 20.35 67.7861 20.9189C67.7861 22.0795 68.4574 22.6598 69.8 22.6598ZM72.2577 23.9569C71.5295 25.4361 70.0959 26.1757 67.9567 26.1757C66.2728 26.1757 64.9529 25.6978 63.9971 24.742C63.0641 23.7862 62.5976 22.5915 62.5976 21.1579C62.5976 19.4966 63.2006 18.2109 64.4067 17.3006C65.6356 16.3676 67.4447 15.9011 69.8342 15.9011H72.0188V14.7064C72.0188 13.25 71.0516 12.5218 69.1173 12.5218C67.2513 12.5218 65.5218 13.0452 63.9288 14.092V9.62029C65.2942 8.84657 67.2627 8.45971 69.8342 8.45971C72.2919 8.45971 74.1238 8.99449 75.3299 10.064C76.5359 11.1108 77.139 12.7493 77.139 14.9795V26.0733H72.2577V23.9569Z" fill="#ECFFFC"/>
<path d="M85.3185 26.0733H80.3349L80.369 8.76693H85.3185V11.9756C85.6371 10.9743 86.1605 10.1778 86.8887 9.58616C87.6397 8.97173 88.5045 8.66452 89.483 8.66452C90.0291 8.66452 90.4615 8.71003 90.7801 8.80106V13.5117C90.2339 13.2613 89.6081 13.1362 88.9027 13.1362C87.8331 13.1362 86.9684 13.5344 86.3084 14.3309C85.6485 15.1046 85.3185 16.14 85.3185 17.4372V26.0733Z" fill="#ECFFFC"/>
<path d="M97.4745 26.0733H92.4909V8.76693H97.4745V26.0733ZM97.0308 1.70102C97.5997 2.26994 97.8841 2.95263 97.8841 3.74911C97.8841 4.54559 97.5997 5.22829 97.0308 5.7972C96.4619 6.36611 95.7792 6.65057 94.9827 6.65057C94.1862 6.65057 93.5035 6.36611 92.9346 5.7972C92.3657 5.22829 92.0812 4.54559 92.0812 3.74911C92.0812 2.95263 92.3657 2.26994 92.9346 1.70102C93.5035 1.13211 94.1862 0.847656 94.9827 0.847656C95.7792 0.847656 96.4619 1.13211 97.0308 1.70102Z" fill="#ECFFFC"/>
<path d="M116.773 26.0733H111.79V23.3083C110.879 25.2426 109.127 26.2098 106.533 26.2098C104.758 26.2098 103.37 25.7205 102.368 24.742C101.39 23.7407 100.901 22.2729 100.901 20.3386V8.76693H105.884V19.2122C105.884 21.2375 106.772 22.2502 108.547 22.2502C110.709 22.2502 111.79 20.8051 111.79 17.915V8.76693H116.773V26.0733Z" fill="#ECFFFC"/>
<path d="M132 20.8506C132 22.5574 131.386 23.8773 130.157 24.8103C128.928 25.7433 127.301 26.2098 125.275 26.2098C123.182 26.2098 121.43 25.8571 120.019 25.1516V20.7141C121.589 21.8064 123.25 22.3526 125.002 22.3526C126.254 22.3526 126.88 21.9543 126.88 21.1579C126.88 20.953 126.823 20.7596 126.709 20.5776C126.595 20.3955 126.402 20.2248 126.129 20.0655C125.856 19.9062 125.605 19.7811 125.378 19.6901C125.15 19.5763 124.82 19.4284 124.388 19.2463C123.956 19.0643 123.626 18.9163 123.398 18.8025C121.1 17.7102 119.95 16.0718 119.95 13.8871C119.95 12.2032 120.588 10.8947 121.862 9.96164C123.159 9.02862 124.763 8.56212 126.675 8.56212C128.45 8.56212 129.929 8.80106 131.112 9.27895V13.5458C129.906 12.8403 128.495 12.4876 126.88 12.4876C126.288 12.4876 125.833 12.6128 125.514 12.8631C125.196 13.0907 125.037 13.3865 125.037 13.7506C125.037 13.9554 125.093 14.1488 125.207 14.3309C125.321 14.5129 125.503 14.6836 125.753 14.8429C126.026 15.0022 126.277 15.1501 126.504 15.2867C126.755 15.4005 127.085 15.5484 127.494 15.7304C127.927 15.9125 128.268 16.0718 128.518 16.2083C129.565 16.7545 130.407 17.3916 131.044 18.1199C131.681 18.8253 132 19.7356 132 20.8506Z" fill="#ECFFFC"/>
</svg>
