<svg width="77" height="76" viewBox="0 0 77 76" fill="none" xmlns="http://www.w3.org/2000/svg">
<path d="M2.875 38C2.875 21.2062 2.875 12.8093 8.09216 7.59216C13.3093 2.375 21.7062 2.375 38.5 2.375C55.2938 2.375 63.6907 2.375 68.9078 7.59216C74.125 12.8093 74.125 21.2062 74.125 38C74.125 54.7938 74.125 63.1907 68.9078 68.4078C63.6907 73.625 55.2938 73.625 38.5 73.625C21.7062 73.625 13.3093 73.625 8.09216 68.4078C2.875 63.1907 2.875 54.7938 2.875 38Z" stroke="#0F1534" stroke-width="4" stroke-linejoin="round"/>
<path d="M31 30.5H34.75" stroke="#0F1534" stroke-width="4" stroke-linecap="round" stroke-linejoin="round"/>
<path d="M31 49.25H46" stroke="#0F1534" stroke-width="4" stroke-linecap="round" stroke-linejoin="round"/>
<path d="M49.5913 35.9834V32.408C49.5913 25.3855 49.5913 21.8743 47.8093 19.4128C44.4328 14.749 37.8736 15.5528 32.7957 15.5528C27.7178 15.5528 21.1586 14.749 17.782 19.4128C16 21.8743 16 25.3855 16 32.408V41.772C16 50.6005 16 55.0147 18.733 57.7573C21.4659 60.5 25.8646 60.5 34.6619 60.5H48.5734C58.3187 60.5 62.2146 53.6469 60.6736 43.8825C59.7567 38.073 54.7432 35.9834 49.5913 35.9834Z" stroke="#0F1534" stroke-width="4" stroke-linejoin="round"/>
</svg>
