<svg width="32" height="24" viewBox="0 0 32 24" fill="none" xmlns="http://www.w3.org/2000/svg">
<path d="M27.6987 20C28.6978 20 29.4924 19.3713 30.2059 18.4922C31.6665 16.6926 29.2684 15.2545 28.3538 14.5501C27.424 13.8342 26.3859 13.4286 25.3333 13.3333M24 10.6667C25.8409 10.6667 27.3333 9.17428 27.3333 7.33333C27.3333 5.49238 25.8409 4 24 4" stroke="#F0FDF6" stroke-width="2" stroke-linecap="round"/>
<path d="M4.29997 20C3.30091 20 2.50625 19.3713 1.79276 18.4922C0.332149 16.6926 2.73026 15.2545 3.64489 14.5501C4.57466 13.8342 5.61281 13.4286 6.66536 13.3333M7.33203 10.6667C5.49108 10.6667 3.9987 9.17428 3.9987 7.33333C3.9987 5.49238 5.49108 4 7.33203 4" stroke="#F0FDF6" stroke-width="2" stroke-linecap="round"/>
<path d="M10.7771 16.1481C9.41473 16.9905 5.84268 18.7106 8.0183 20.8631C9.08107 21.9145 10.2647 22.6665 11.7529 22.6665H20.2445C21.7327 22.6665 22.9163 21.9145 23.9791 20.8631C26.1547 18.7106 22.5827 16.9905 21.2203 16.1481C18.0256 14.1726 13.9718 14.1726 10.7771 16.1481Z" stroke="#F0FDF6" stroke-width="2" stroke-linecap="round" stroke-linejoin="round"/>
<path d="M20.6654 5.99992C20.6654 8.57725 18.576 10.6666 15.9987 10.6666C13.4214 10.6666 11.332 8.57725 11.332 5.99992C11.332 3.42259 13.4214 1.33325 15.9987 1.33325C18.576 1.33325 20.6654 3.42259 20.6654 5.99992Z" stroke="#F0FDF6" stroke-width="2"/>
</svg>
