<svg width="28" height="28" viewBox="0 0 28 28" fill="none" xmlns="http://www.w3.org/2000/svg">
<path d="M1.33203 13.9999C1.33203 8.02879 1.33203 5.04323 3.18702 3.18824C5.04201 1.33325 8.02757 1.33325 13.9987 1.33325C19.9698 1.33325 22.9554 1.33325 24.8104 3.18824C26.6654 5.04323 26.6654 8.02879 26.6654 13.9999C26.6654 19.971 26.6654 22.9566 24.8104 24.8116C22.9554 26.6666 19.9698 26.6666 13.9987 26.6666C8.02757 26.6666 5.04201 26.6666 3.18702 24.8116C1.33203 22.9566 1.33203 19.971 1.33203 13.9999Z" stroke="#F0FDF6" stroke-width="2" stroke-linecap="round" stroke-linejoin="round"/>
<path d="M26.6654 16H20.0978C18.975 16 18.0928 16.9381 17.598 17.9296C17.0604 19.0068 15.9839 20 13.9987 20C12.0135 20 10.937 19.0068 10.3994 17.9296C9.90459 16.9381 9.02239 16 7.89957 16H1.33203" stroke="#F0FDF6" stroke-width="2" stroke-linejoin="round"/>
</svg>
