<svg width="52" height="52" viewBox="0 0 52 52" fill="none" xmlns="http://www.w3.org/2000/svg">
<path d="M2.25 26C2.25 14.8041 2.25 9.20621 5.72811 5.72811C9.20621 2.25 14.8041 2.25 26 2.25C37.1959 2.25 42.7938 2.25 46.2719 5.72811C49.75 9.20621 49.75 14.8041 49.75 26C49.75 37.1959 49.75 42.7938 46.2719 46.2719C42.7938 49.75 37.1959 49.75 26 49.75C14.8041 49.75 9.20621 49.75 5.72811 46.2719C2.25 42.7938 2.25 37.1959 2.25 26Z" stroke="#617975" stroke-width="3" stroke-linecap="round" stroke-linejoin="round"/>
<path d="M49.75 29.75L37.4358 29.75C35.3306 29.75 33.6764 31.509 32.7486 33.3681C31.7407 35.3878 29.7222 37.25 26 37.25C22.2778 37.25 20.2593 35.3878 19.2514 33.3681C18.3235 31.509 16.6694 29.75 14.5641 29.75L2.25 29.75" stroke="#617975" stroke-width="3" stroke-linejoin="round"/>
</svg>
