<svg width="53" height="54" viewBox="0 0 53 54" fill="none" xmlns="http://www.w3.org/2000/svg">
<path d="M1.5 45.75C1.5 42.8037 1.5 41.3306 2.59835 40.4153C3.6967 39.5 5.46447 39.5 9 39.5C12.5355 39.5 14.3033 39.5 15.4017 40.4153C16.5 41.3306 16.5 42.8037 16.5 45.75C16.5 48.6963 16.5 50.1694 15.4017 51.0847C14.3033 52 12.5355 52 9 52C5.46447 52 3.6967 52 2.59835 51.0847C1.5 50.1694 1.5 48.6963 1.5 45.75Z" stroke="#617975" stroke-width="3"/>
<path d="M36.5 45.75C36.5 42.8037 36.5 41.3306 37.5983 40.4153C38.6967 39.5 40.4645 39.5 44 39.5C47.5355 39.5 49.3033 39.5 50.4017 40.4153C51.5 41.3306 51.5 42.8037 51.5 45.75C51.5 48.6963 51.5 50.1694 50.4017 51.0847C49.3033 52 47.5355 52 44 52C40.4645 52 38.6967 52 37.5983 51.0847C36.5 50.1694 36.5 48.6963 36.5 45.75Z" stroke="#617975" stroke-width="3"/>
<path d="M44 39.5C44 33.295 42.1405 32 33.2308 32L19.7692 32C10.8595 32 9 33.295 9 39.5" stroke="#617975" stroke-width="3" stroke-linecap="round" stroke-linejoin="round"/>
<path d="M26.5 13.25L29 9.5M37.75 13.25C37.75 19.4632 32.7132 24.5 26.5 24.5C20.2868 24.5 15.25 19.4632 15.25 13.25C15.25 7.0368 20.2868 2 26.5 2C32.7132 2 37.75 7.0368 37.75 13.25Z" stroke="#617975" stroke-width="3" stroke-linecap="round"/>
</svg>
