<svg width="53" height="54" viewBox="0 0 53 54" fill="none" xmlns="http://www.w3.org/2000/svg">
<path d="M1.5 24.5C7.32925 18.3946 15.6081 18.1071 21.5 24.5M17.7377 8.25C17.7377 11.7018 14.9355 14.5 11.4788 14.5C8.02213 14.5 5.21992 11.7018 5.21992 8.25C5.21992 4.79822 8.02213 2 11.4788 2C14.9355 2 17.7377 4.79822 17.7377 8.25Z" stroke="#617975" stroke-width="3" stroke-linecap="round"/>
<path d="M31.5 52C37.3293 45.8946 45.6081 45.6071 51.5 52M47.7377 35.75C47.7377 39.2018 44.9355 42 41.4788 42C38.0221 42 35.2199 39.2018 35.2199 35.75C35.2199 32.2982 38.0221 29.5 41.4788 29.5C44.9355 29.5 47.7377 32.2982 47.7377 35.75Z" stroke="#617975" stroke-width="3" stroke-linecap="round"/>
<path d="M4 32C4 41.675 11.825 49.5 21.5 49.5L19 44.5" stroke="#617975" stroke-width="3" stroke-linecap="round" stroke-linejoin="round"/>
<path d="M34 4.5L49 4.5M34 12L49 12M34 19.5H42.75" stroke="#617975" stroke-width="3" stroke-linecap="round" stroke-linejoin="round"/>
</svg>
