<svg width="49" height="54" viewBox="0 0 49 54" fill="none" xmlns="http://www.w3.org/2000/svg">
<path d="M31.8156 4.27758L15.1838 12.2613C13.9038 12.8757 12.5361 13.0297 11.1419 12.7173C10.2294 12.5129 9.77315 12.4107 9.40576 12.3688C4.84358 11.8478 2 15.4586 2 19.6107V21.8893C2 26.0414 4.84358 29.6522 9.40576 29.1312C9.77314 29.0893 10.2294 28.9871 11.1419 28.7827C12.5361 28.4704 13.9038 28.6242 15.1838 29.2387L31.8156 37.2224C35.6336 39.0551 37.5426 39.9715 39.671 39.2572C41.7993 38.543 42.5299 37.0104 43.9909 33.9451C48.003 25.5279 48.003 15.9721 43.9909 7.55491C42.5299 4.48965 41.7993 2.95702 39.671 2.24275C37.5426 1.52849 35.6336 2.44485 31.8156 4.27758Z" stroke="#617975" stroke-width="3" stroke-linecap="round" stroke-linejoin="round"/>
<path d="M19.4168 52L18.4848 53.1752C19.039 53.6148 19.825 53.6074 20.3709 53.1575L19.4168 52ZM23.1451 48.9272L24.0991 50.0847H24.0991L23.1451 48.9272ZM12.0396 29.5V28C11.2112 28 10.5396 28.6716 10.5396 29.5H12.0396ZM14.8741 29.5L16.3551 29.2618C16.2382 28.5347 15.6106 28 14.8741 28V29.5ZM22.4819 42.4926L21.66 43.7473L21.66 43.7473L22.4819 42.4926ZM20.3709 53.1575L24.0991 50.0847L22.1911 47.7697L18.4628 50.8425L20.3709 53.1575ZM10.5396 29.5C10.5396 32.6026 10.4755 35.2536 10.5107 37.4418C10.5463 39.657 10.6823 41.5847 11.1206 43.3567C12.0287 47.0287 14.1643 49.7487 18.4848 53.1752L20.3489 50.8248C16.2654 47.5861 14.7124 45.3842 14.0329 42.6365C13.6773 41.1988 13.5448 39.5422 13.5103 37.3936C13.4753 35.2179 13.5396 32.7255 13.5396 29.5H10.5396ZM12.0396 31H14.8741V28H12.0396V31ZM13.3932 29.7382C13.9916 33.4593 15.0124 36.2986 16.4363 38.5584C17.8663 40.8279 19.6522 42.4322 21.66 43.7473L23.3038 41.2378C21.5675 40.1005 20.1247 38.7846 18.9744 36.9591C17.818 35.1237 16.9069 32.693 16.3551 29.2618L13.3932 29.7382ZM24.0991 50.0847C27.1586 47.5632 26.2733 43.1829 23.3038 41.2378L21.66 43.7473C23.3027 44.8234 23.3687 46.7992 22.1911 47.7697L24.0991 50.0847Z" fill="#617975"/>
<path d="M13.25 28.25L13.25 13.25" stroke="#617975" stroke-width="3" stroke-linecap="round" stroke-linejoin="round"/>
</svg>
