<svg width="53" height="46" viewBox="0 0 53 46" fill="none" xmlns="http://www.w3.org/2000/svg">
<path d="M1.5 24C1.5 21.2386 3.73858 19 6.5 19C10.6421 19 14 22.3579 14 26.5L14 36.5C14 40.6421 10.6421 44 6.5 44C3.73858 44 1.5 41.7614 1.5 39L1.5 24Z" stroke="#617975" stroke-width="3" stroke-linecap="round" stroke-linejoin="round"/>
<path d="M35.1969 12.2656L34.5311 14.4159C33.9856 16.1778 33.7128 17.0587 33.9226 17.7545C34.0923 18.3174 34.4648 18.8025 34.9725 19.1218C35.6 19.5164 36.5493 19.5164 38.4478 19.5164H39.4578C45.8829 19.5164 49.0955 19.5164 50.6129 21.4183C50.7863 21.6356 50.9405 21.8667 51.074 22.1092C52.2413 24.2304 50.9142 27.0878 48.2599 32.8028C45.8242 38.0472 44.6064 40.6694 42.3451 42.2129C42.1261 42.3623 41.9012 42.5032 41.6707 42.6354C39.2901 44 36.3404 44 30.441 44H29.1615C22.0143 44 18.4407 44 16.2203 41.8487C14 39.6973 14 36.2348 14 29.3098L14 26.8759C14 23.2366 14 21.417 14.6459 19.7515C15.2917 18.086 16.5284 16.7166 19.0017 13.9778L29.2303 2.6514C29.4868 2.36734 29.6151 2.22529 29.7282 2.12687C30.7839 1.2082 32.4131 1.31161 33.336 2.35587C33.4349 2.46774 33.5429 2.62478 33.759 2.93884C34.0971 3.43012 34.2661 3.67576 34.4134 3.91914C35.7321 6.09783 36.1311 8.68591 35.527 11.1429C35.4595 11.4173 35.3719 11.7002 35.1969 12.2656Z" stroke="#617975" stroke-width="3" stroke-linecap="round" stroke-linejoin="round"/>
</svg>
