<svg width="51" height="52" viewBox="0 0 51 52" fill="none" xmlns="http://www.w3.org/2000/svg">
<path d="M1.75 26C1.75 14.8041 1.75 9.20621 5.22811 5.72811C8.70621 2.25 14.3041 2.25 25.5 2.25C36.6959 2.25 42.2938 2.25 45.7719 5.72811C49.25 9.20621 49.25 14.8041 49.25 26C49.25 37.1959 49.25 42.7938 45.7719 46.2719C42.2938 49.75 36.6959 49.75 25.5 49.75C14.3041 49.75 8.70621 49.75 5.22811 46.2719C1.75 42.7938 1.75 37.1959 1.75 26Z" stroke="#617975" stroke-width="3" stroke-linejoin="round"/>
<path d="M20.5 21H23" stroke="#617975" stroke-width="3" stroke-linecap="round" stroke-linejoin="round"/>
<path d="M20.5 33.5H30.5" stroke="#617975" stroke-width="3" stroke-linecap="round" stroke-linejoin="round"/>
<path d="M32.8942 24.6556V22.272C32.8942 17.5903 32.8942 15.2495 31.7062 13.6085C29.4552 10.4993 25.0824 11.0352 21.6971 11.0352C18.3118 11.0352 13.939 10.4993 11.688 13.6085C10.5 15.2495 10.5 17.5903 10.5 22.272V28.5147C10.5 34.4003 10.5 37.3431 12.322 39.1716C14.144 41 17.0764 41 22.9412 41H32.2156C38.7124 41 41.3098 36.4313 40.2824 29.9217C39.6711 26.0487 36.3288 24.6556 32.8942 24.6556Z" stroke="#617975" stroke-width="3" stroke-linejoin="round"/>
</svg>
