<svg width="59" height="44" viewBox="0 0 59 44" fill="none" xmlns="http://www.w3.org/2000/svg">
<path d="M51.4351 37C53.3084 37 54.7983 35.8212 56.1361 34.1729C58.8748 30.7986 54.3783 28.1021 52.6634 26.7815C50.9201 25.439 48.9735 24.6785 47 24.5M44.5 19.5C47.9518 19.5 50.75 16.7018 50.75 13.25C50.75 9.79822 47.9518 7 44.5 7" stroke="#617975" stroke-width="3" stroke-linecap="round"/>
<path d="M7.56489 37C5.69164 37 4.20167 35.8212 2.86386 34.1729C0.125221 30.7986 4.62168 28.1021 6.33661 26.7815C8.07994 25.439 10.0265 24.6785 12 24.5M13.25 19.5C9.79822 19.5 7 16.7018 7 13.25C7 9.79822 9.79822 7 13.25 7" stroke="#617975" stroke-width="3" stroke-linecap="round"/>
<path d="M19.7095 29.778C17.1551 31.3575 10.4575 34.5827 14.5367 38.6186C16.5294 40.59 18.7488 42 21.5391 42L37.4609 42C40.2512 42 42.4706 40.59 44.4632 38.6186C48.5425 34.5827 41.8449 31.3575 39.2905 29.778C33.3004 26.074 25.6996 26.074 19.7095 29.778Z" stroke="#617975" stroke-width="3" stroke-linecap="round" stroke-linejoin="round"/>
<path d="M38.25 10.75C38.25 15.5825 34.3325 19.5 29.5 19.5C24.6675 19.5 20.75 15.5825 20.75 10.75C20.75 5.91751 24.6675 2 29.5 2C34.3325 2 38.25 5.91751 38.25 10.75Z" stroke="#617975" stroke-width="3"/>
</svg>
