<svg width="54" height="46" viewBox="0 0 54 46" fill="none" xmlns="http://www.w3.org/2000/svg">
<path d="M27 44.25C31.5242 44.25 35.8628 43.8031 39.8836 42.9834C44.9059 41.9597 47.417 41.4478 49.7085 38.5016C52 35.5553 52 32.1732 52 25.4089V20.5911C52 13.8268 52 10.4447 49.7085 7.49843C47.417 4.55219 44.9059 4.04031 39.8836 3.01656C35.8628 2.19693 31.5242 1.75 27 1.75C22.4758 1.75 18.1372 2.19693 14.1164 3.01656C9.09414 4.04031 6.58302 4.55219 4.29151 7.49843C2 10.4447 2 13.8268 2 20.5911V25.4089C2 32.1732 2 35.5553 4.29151 38.5016C6.58302 41.4478 9.09414 41.9597 14.1164 42.9834C18.1372 43.8031 22.4758 44.25 27 44.25Z" stroke="#617975" stroke-width="3"/>
<path d="M36.9053 23.7822C36.5343 25.2968 34.5603 26.3846 30.6121 28.5602C26.3181 30.9264 24.1711 32.1095 22.432 31.6537C21.843 31.4993 21.3005 31.2278 20.845 30.8596C19.5 29.7722 19.5 27.5148 19.5 23C19.5 18.4852 19.5 16.2278 20.845 15.1404C21.3005 14.7722 21.843 14.5007 22.432 14.3463C24.1711 13.8905 26.3181 15.0736 30.6121 17.4398C34.5603 19.6154 36.5343 20.7032 36.9053 22.2178C37.0316 22.7331 37.0316 23.2669 36.9053 23.7822Z" stroke="#617975" stroke-width="3" stroke-linejoin="round"/>
</svg>
