<svg fill="#fff" viewBox="0 -2 28 28" xmlns="http://www.w3.org/2000/svg" stroke="#fff" stroke-width="0.00028" transform="matrix(1, 0, 0, 1, 0, 0)"><g id="SVGRepo_bgCarrier" stroke-width="0"></g><g id="SVGRepo_tracerCarrier" stroke-linecap="round" stroke-linejoin="round" stroke="#aac4bf" stroke-width="0.11200000000000002"><path d="m2.61 0h22.431c1.441 0 2.61 1.168 2.61 2.61s-1.168 2.61-2.61 2.61h-22.431c-1.441 0-2.61-1.168-2.61-2.61s1.168-2.61 2.61-2.61z"></path><path d="m2.61 9.39h22.431c1.441 0 2.61 1.168 2.61 2.61s-1.168 2.61-2.61 2.61h-22.431c-1.441 0-2.61-1.168-2.61-2.61s1.168-2.61 2.61-2.61z"></path><path d="m2.61 18.781h22.431c1.441 0 2.61 1.168 2.61 2.61s-1.168 2.61-2.61 2.61h-22.431c-1.441 0-2.61-1.168-2.61-2.61s1.168-2.61 2.61-2.61z"></path></g><g id="SVGRepo_iconCarrier"><path d="m2.61 0h22.431c1.441 0 2.61 1.168 2.61 2.61s-1.168 2.61-2.61 2.61h-22.431c-1.441 0-2.61-1.168-2.61-2.61s1.168-2.61 2.61-2.61z"></path><path d="m2.61 9.39h22.431c1.441 0 2.61 1.168 2.61 2.61s-1.168 2.61-2.61 2.61h-22.431c-1.441 0-2.61-1.168-2.61-2.61s1.168-2.61 2.61-2.61z"></path><path d="m2.61 18.781h22.431c1.441 0 2.61 1.168 2.61 2.61s-1.168 2.61-2.61 2.61h-22.431c-1.441 0-2.61-1.168-2.61-2.61s1.168-2.61 2.61-2.61z"></path></g></svg>