<svg width="87" height="64" viewBox="0 0 87 64" fill="none" xmlns="http://www.w3.org/2000/svg">
<path d="M76.4027 54.5C79.2125 54.5 81.4475 52.7318 83.4542 50.2593C87.5622 45.1979 80.8175 41.1531 78.2451 39.1723C75.6301 37.1586 72.7103 36.0178 69.75 35.75M66 28.25C71.1777 28.25 75.375 24.0527 75.375 18.875C75.375 13.6973 71.1777 9.5 66 9.5" stroke="#0F1534" stroke-width="4" stroke-linecap="round"/>
<path d="M10.5973 54.5C7.78746 54.5 5.5525 52.7318 3.5458 50.2593C-0.562168 45.1979 6.18251 41.1531 8.75492 39.1723C11.3699 37.1586 14.2897 36.0178 17.25 35.75M19.125 28.25C13.9473 28.25 9.75 24.0527 9.75 18.875C9.75 13.6973 13.9473 9.5 19.125 9.5" stroke="#0F1534" stroke-width="4" stroke-linecap="round"/>
<path d="M28.8143 43.667C24.9826 46.0362 14.9362 50.8741 21.0551 56.9278C24.0442 59.8851 27.3732 62 31.5586 62L55.4414 62C59.6268 62 62.9558 59.8851 65.9449 56.9278C72.0638 50.8741 62.0174 46.0362 58.1857 43.667C49.2005 38.111 37.7995 38.111 28.8143 43.667Z" stroke="#0F1534" stroke-width="4" stroke-linecap="round" stroke-linejoin="round"/>
<path d="M56.625 15.125C56.625 22.3737 50.7487 28.25 43.5 28.25C36.2513 28.25 30.375 22.3737 30.375 15.125C30.375 7.87626 36.2513 2 43.5 2C50.7487 2 56.625 7.87626 56.625 15.125Z" stroke="#0F1534" stroke-width="4" stroke-linecap="round"/>
</svg>
