<svg width="79" height="68" viewBox="0 0 79 68" fill="none" xmlns="http://www.w3.org/2000/svg">
<path d="M39.5 65.875C46.2863 65.875 52.7942 65.2046 58.8254 63.9752C66.3588 62.4395 70.1255 61.6717 73.5627 57.2524C77 52.833 77 47.7598 77 37.6133V30.3867C77 20.2402 77 15.167 73.5627 10.7477C70.1255 6.32829 66.3588 5.56047 58.8254 4.02484C52.7942 2.7954 46.2863 2.125 39.5 2.125C32.7137 2.125 26.2058 2.7954 20.1746 4.02484C12.6412 5.56047 8.87452 6.32829 5.43726 10.7476C2 15.167 2 20.2402 2 30.3867V37.6133C2 47.7598 2 52.833 5.43726 57.2524C8.87452 61.6717 12.6412 62.4395 20.1746 63.9752C26.2058 65.2046 32.7137 65.875 39.5 65.875Z" stroke="#0F1534" stroke-width="4"/>
<path d="M54.358 35.1733C53.8015 37.4452 50.8404 39.0769 44.9182 42.3403C38.4772 45.8896 35.2566 47.6642 32.648 46.9805C31.7645 46.7489 30.9507 46.3418 30.2675 45.7893C28.25 44.1583 28.25 40.7722 28.25 34C28.25 27.2278 28.25 23.8417 30.2675 22.2107C30.9507 21.6582 31.7645 21.2511 32.648 21.0195C35.2566 20.3358 38.4772 22.1104 44.9182 25.6597C50.8404 28.9231 53.8015 30.5548 54.358 32.8267C54.5473 33.5997 54.5473 34.4003 54.358 35.1733Z" stroke="#0F1534" stroke-width="4" stroke-linejoin="round"/>
</svg>
